<svg xmlns="http://www.w3.org/2000/svg" xmlns:xlink="http://www.w3.org/1999/xlink" width="101.107" height="111.5" viewBox="0 0 101.107 111.5">
  <defs>
    <clipPath id="clip-path">
      <path id="Path_16125" data-name="Path 16125" d="M198,139.21H299.107v111.5H198Z" transform="translate(-9.9 0)" fill="#6abf4b"/>
    </clipPath>
  </defs>
  <g id="download_-_2022-02-15T120537.986" data-name="download - 2022-02-15T120537.986" transform="translate(-188.1 -139.21)" clip-path="url(#clip-path)">
    <path id="Path_16124" data-name="Path 16124" d="M264.625,182.76V229.8h17.938a3.474,3.474,0,0,0,3.485-3.46v-59.26H272.1a6.953,6.953,0,0,1-6.962-6.99v-17.4H226.284a3.49,3.49,0,0,0-3.47,3.467v10.471h20.906l20.906,24.392v1.742Zm-45.3-26.134V146.2a6.985,6.985,0,0,1,6.98-6.993h42.318L289.533,163.6v62.75a6.962,6.962,0,0,1-6.958,6.937H264.626v10.484a6.962,6.962,0,0,1-6.958,6.937H195.383a6.968,6.968,0,0,1-6.958-6.993V163.623a6.985,6.985,0,0,1,6.98-6.993h23.927Zm49.3-12.2v15.649A3.507,3.507,0,0,0,272.1,163.6H285l-16.377-19.164Zm-28.392,15.68H195.376a3.49,3.49,0,0,0-3.47,3.467V243.75a3.491,3.491,0,0,0,3.485,3.467h62.265a3.474,3.474,0,0,0,3.485-3.46V184.5H247.2a6.953,6.953,0,0,1-6.962-6.99v-17.4Zm3.485,1.742V177.5a3.507,3.507,0,0,0,3.474,3.516h12.9l-16.377-19.164Z" transform="translate(-0.325 0.005)" fill="#6abf4b"/>
    <path id="Path_16126" data-name="Path 16126" d="M207.161,194.958h47.5" transform="translate(-6)" fill="none" stroke="#6abf4b" stroke-linecap="round" stroke-width="3"/>
    <path id="Path_16127" data-name="Path 16127" d="M207.161,194.958h47.5" transform="translate(-6 11)" fill="none" stroke="#6abf4b" stroke-linecap="round" stroke-width="3"/>
    <path id="Path_16128" data-name="Path 16128" d="M207.161,194.958h47.5" transform="translate(-6 22)" fill="none" stroke="#6abf4b" stroke-linecap="round" stroke-width="3"/>
    <path id="Path_16129" data-name="Path 16129" d="M207.161,194.958h23.962" transform="translate(-6 33)" fill="none" stroke="#6abf4b" stroke-linecap="round" stroke-width="3"/>
  </g>
</svg>
