<svg width="20" height="23" viewBox="0 0 20 23" fill="none" xmlns="http://www.w3.org/2000/svg">
<g clip-path="url(#clip0_1868_18304)">
<path d="M9.86744 3.44992e-07C10.6333 -0.000367925 11.3698 0.294116 11.9243 0.822358C12.4788 1.3506 12.8087 2.07204 12.8454 2.83699C14.2274 3.4224 15.4063 4.40189 16.2351 5.65318C17.0638 6.90448 17.5057 8.37215 17.5054 9.873V14.165C18.1281 14.2157 18.7071 14.5051 19.1215 14.9726C19.5359 15.4402 19.7535 16.0498 19.729 16.6741C19.7045 17.2984 19.4396 17.889 18.9899 18.3226C18.5401 18.7563 17.9402 18.9993 17.3154 19.001H2.41543C1.79068 18.9993 1.19074 18.7563 0.740974 18.3226C0.291207 17.889 0.0263956 17.2984 0.00186882 16.6741C-0.022658 16.0498 0.195007 15.4402 0.609367 14.9726C1.02373 14.5051 1.60273 14.2157 2.22543 14.165V9.873C2.22621 8.3721 2.66906 6.90467 3.49869 5.6539C4.32833 4.40314 5.50798 3.42444 6.89042 2.84C6.92743 2.07461 7.25779 1.35287 7.81287 0.824601C8.36796 0.29633 9.10515 0.00209652 9.87144 0.00299107L9.86744 3.44992e-07ZM8.10242 4.373C6.93774 4.74701 5.92187 5.48113 5.20121 6.46957C4.48055 7.45802 4.0923 8.64974 4.09243 9.873V14.34C4.09217 14.7845 3.91554 15.2107 3.60131 15.5252C3.28709 15.8396 2.86093 16.0165 2.41642 16.017C2.26816 16.017 2.12599 16.0759 2.02116 16.1807C1.91632 16.2856 1.85743 16.4277 1.85743 16.576C1.85743 16.7242 1.91632 16.8664 2.02116 16.9713C2.12599 17.0761 2.26816 17.135 2.41642 17.135H17.3164C17.4647 17.135 17.6069 17.0761 17.7117 16.9713C17.8165 16.8664 17.8754 16.7242 17.8754 16.576C17.8754 16.4277 17.8165 16.2856 17.7117 16.1807C17.6069 16.0759 17.4647 16.017 17.3164 16.017C17.0964 16.0169 16.8785 15.9734 16.6753 15.889C16.472 15.8047 16.2874 15.6811 16.132 15.5253C15.9765 15.3696 15.8533 15.1848 15.7693 14.9814C15.6853 14.778 15.6422 14.56 15.6424 14.34V9.869C15.6424 8.64578 15.2541 7.45413 14.5335 6.46571C13.8128 5.4773 12.797 4.74315 11.6324 4.369L10.9854 4.162V2.974C10.9767 2.68341 10.8552 2.40763 10.6466 2.20515C10.4379 2.00268 10.1587 1.88944 9.86793 1.88944C9.5772 1.88944 9.29793 2.00268 9.0893 2.20515C8.88068 2.40763 8.75913 2.68341 8.75043 2.974V4.162L8.10242 4.373ZM6.32743 19.002H8.19044C8.18498 19.2256 8.2243 19.448 8.3061 19.6562C8.3879 19.8644 8.51051 20.0541 8.66673 20.2142C8.82294 20.3743 9.00959 20.5015 9.21571 20.5883C9.42183 20.6752 9.64325 20.7199 9.86692 20.7199C10.0906 20.7199 10.312 20.6752 10.5181 20.5883C10.7243 20.5015 10.9109 20.3743 11.0671 20.2142C11.2234 20.0541 11.346 19.8644 11.4278 19.6562C11.5096 19.448 11.5489 19.2256 11.5434 19.002H13.4064C13.4143 19.4718 13.3286 19.9385 13.1543 20.3748C12.9799 20.8112 12.7205 21.2085 12.391 21.5435C12.0616 21.8786 11.6687 22.1447 11.2354 22.3263C10.802 22.5079 10.3368 22.6015 9.86692 22.6015C9.39703 22.6015 8.93184 22.5079 8.49848 22.3263C8.06512 22.1447 7.67227 21.8786 7.34281 21.5435C7.01336 21.2085 6.7539 20.8112 6.57957 20.3748C6.40524 19.9385 6.31953 19.4718 6.32743 19.002Z" fill="#3A6929"/>
</g>
<defs>
<clipPath id="clip0_1868_18304">
<rect width="19.73" height="22.541" fill="white"/>
</clipPath>
</defs>
</svg>
