<svg xmlns="http://www.w3.org/2000/svg" width="47.661" height="38.128" viewBox="0 0 47.661 38.128">
  <path id="instled" d="M15.49,26.213a1.7,1.7,0,0,0-.526.081,9.824,9.824,0,0,1-3.049.515,9.832,9.832,0,0,1-3.05-.515,1.7,1.7,0,0,0-.525-.081A8.341,8.341,0,0,0,0,34.6a3.565,3.565,0,0,0,3.575,3.528H20.256A3.565,3.565,0,0,0,23.83,34.6,8.341,8.341,0,0,0,15.49,26.213ZM11.915,23.83a7.149,7.149,0,1,0-7.149-7.149A7.149,7.149,0,0,0,11.915,23.83ZM44.086,0H15.49a3.639,3.639,0,0,0-3.575,3.693V7.149a9.424,9.424,0,0,1,4.766,1.326V4.766H42.894V26.213H38.128V21.447H28.6v4.766H22.919a9.491,9.491,0,0,1,2.956,4.766H44.086a3.639,3.639,0,0,0,3.575-3.693V3.693A3.639,3.639,0,0,0,44.086,0Z" transform="translate(0)" fill="#333"/>
</svg>
