<svg xmlns="http://www.w3.org/2000/svg" xmlns:xlink="http://www.w3.org/1999/xlink" width="34.647" height="34.647" viewBox="0 0 34.647 34.647">
  <defs>
    <clipPath id="clip-path">
      <path id="Mask" d="M0,17.324A17.323,17.323,0,1,1,17.324,34.647,17.343,17.343,0,0,1,0,17.324Zm3.647,0A13.677,13.677,0,1,0,17.324,3.647,13.692,13.692,0,0,0,3.647,17.324ZM22.653,24.16l-.171-.128-6.332-5.311a1.83,1.83,0,0,1-.637-1.169l-.015-.228V8.713a1.824,1.824,0,0,1,3.634-.23l.015.23v7.759l5.68,4.766a1.824,1.824,0,0,1,.351,2.4l-.126.171a1.825,1.825,0,0,1-2.4.353Z" fill="#333"/>
    </clipPath>
  </defs>
  <g id="Icons_Clock" data-name="Icons/Clock" transform="translate(1.824 1.824)">
    <g id="Colors_Charcoal-Gray" data-name="Colors/Charcoal-Gray" transform="translate(-1.824 -1.824)">
      <path id="Mask-2" data-name="Mask" d="M0,17.324A17.323,17.323,0,1,1,17.324,34.647,17.343,17.343,0,0,1,0,17.324Zm3.647,0A13.677,13.677,0,1,0,17.324,3.647,13.692,13.692,0,0,0,3.647,17.324ZM22.653,24.16l-.171-.128-6.332-5.311a1.83,1.83,0,0,1-.637-1.169l-.015-.228V8.713a1.824,1.824,0,0,1,3.634-.23l.015.23v7.759l5.68,4.766a1.824,1.824,0,0,1,.351,2.4l-.126.171a1.825,1.825,0,0,1-2.4.353Z" fill="#333"/>
      <g id="Colors_Charcoal-Gray-2" data-name="Colors/Charcoal-Gray" clip-path="url(#clip-path)">
        <g id="Colors_Charcoal-Gray-3" data-name="Colors/Charcoal-Gray" transform="translate(-273.256 -264.572)">
          <rect id="Rectangle" width="583.529" height="583.529" fill="#333"/>
        </g>
      </g>
    </g>
  </g>
</svg>
