<svg xmlns="http://www.w3.org/2000/svg" xmlns:xlink="http://www.w3.org/1999/xlink" width="28.572" height="39.939" viewBox="0 0 28.572 39.939">
  <defs>
    <clipPath id="clip-path">
      <path id="Mask" d="M5.357,39.939A5.4,5.4,0,0,1,0,34.509V18.224A5.4,5.4,0,0,1,5.357,12.8h.129V7.237l.008-.36A7.186,7.186,0,0,1,12.627,0h5.357l.357.008a7.2,7.2,0,0,1,6.787,7.229V9.871H21.557V7.237l-.01-.269a3.593,3.593,0,0,0-3.563-3.35H12.627l-.267.01a3.6,3.6,0,0,0-3.3,3.609V12.8H23.214a5.4,5.4,0,0,1,5.358,5.428V34.509a5.4,5.4,0,0,1-5.358,5.43ZM3.571,18.224V34.509a1.8,1.8,0,0,0,1.786,1.809H23.214A1.8,1.8,0,0,0,25,34.509V18.224a1.8,1.8,0,0,0-1.787-1.809H5.357A1.8,1.8,0,0,0,3.571,18.224ZM12.5,31.8l0-3.555a3.4,3.4,0,0,1-1.784-2.969,3.574,3.574,0,0,1,7.142,0,3.4,3.4,0,0,1-1.782,2.967l0,3.557Z" transform="translate(0 0)" fill="#333"/>
    </clipPath>
  </defs>
  <g id="Icons_Unlocked" data-name="Icons/Unlocked" transform="translate(1.786 0.129)">
    <g id="Colors_Charcoal-Gray" data-name="Colors/Charcoal-Gray" transform="translate(-1.786 -0.129)">
      <path id="Mask-2" data-name="Mask" d="M5.357,39.939A5.4,5.4,0,0,1,0,34.509V18.224A5.4,5.4,0,0,1,5.357,12.8h.129V7.237l.008-.36A7.186,7.186,0,0,1,12.627,0h5.357l.357.008a7.2,7.2,0,0,1,6.787,7.229V9.871H21.557V7.237l-.01-.269a3.593,3.593,0,0,0-3.563-3.35H12.627l-.267.01a3.6,3.6,0,0,0-3.3,3.609V12.8H23.214a5.4,5.4,0,0,1,5.358,5.428V34.509a5.4,5.4,0,0,1-5.358,5.43ZM3.571,18.224V34.509a1.8,1.8,0,0,0,1.786,1.809H23.214A1.8,1.8,0,0,0,25,34.509V18.224a1.8,1.8,0,0,0-1.787-1.809H5.357A1.8,1.8,0,0,0,3.571,18.224ZM12.5,31.8l0-3.555a3.4,3.4,0,0,1-1.784-2.969,3.574,3.574,0,0,1,7.142,0,3.4,3.4,0,0,1-1.782,2.967l0,3.557Z" transform="translate(0 0)" fill="#333"/>
      <g id="Colors_Charcoal-Gray-2" data-name="Colors/Charcoal-Gray" transform="translate(0)" clip-path="url(#clip-path)">
        <g id="Colors_Charcoal-Gray-3" data-name="Colors/Charcoal-Gray" transform="translate(-271.429 -265.871)">
          <rect id="Rectangle" width="571.429" height="579.048" fill="#333"/>
        </g>
      </g>
    </g>
  </g>
</svg>
