<svg xmlns="http://www.w3.org/2000/svg" width="65.894" height="65.894" viewBox="0 0 65.894 65.894">
  <g id="generic_module" transform="translate(-285 -162)">
    <g id="Group_13175" data-name="Group 13175" transform="translate(-475 -348)">
      <g id="Group_21" data-name="Group 21" transform="translate(761 511)">
        <path id="Stroke_1" data-name="Stroke 1" d="M63.894,31.947A31.947,31.947,0,1,1,31.947,0,31.947,31.947,0,0,1,63.894,31.947Z" transform="translate(0)" fill="#fff" stroke="#6abf4b" stroke-miterlimit="10" stroke-width="2"/>
        <path id="Stroke_3" data-name="Stroke 3" d="M56.672,28.336A28.336,28.336,0,1,1,28.336,0,28.336,28.336,0,0,1,56.672,28.336Z" transform="translate(3.612 3.611)" fill="#fff" stroke="#6abf4b" stroke-miterlimit="10" stroke-width="1"/>
      </g>
    </g>
    <g id="Icon_ionic-md-list" data-name="Icon ionic-md-list" transform="translate(307 185)">
      <g id="Group_11859" data-name="Group 11859">
        <path id="Path_61737" data-name="Path 61737" d="M5.625,19.688h15.8V22.65H5.625Z" transform="translate(-5.625 -7.837)" fill="#6abf4b"/>
        <path id="Path_61738" data-name="Path 61738" d="M5.625,12.938H25.376V15.9H5.625Z" transform="translate(-5.625 -7.012)" fill="#6abf4b"/>
        <path id="Path_61739" data-name="Path 61739" d="M5.625,6.188H27.352V9.15H5.625Z" transform="translate(-5.625 -6.188)" fill="#6abf4b"/>
      </g>
      <path id="Path_61740" data-name="Path 61740" d="M5.625,26.437H23.4V29.4H5.625Z" transform="translate(-5.625 -8.661)" fill="#6abf4b"/>
    </g>
  </g>
</svg>
