<svg xmlns="http://www.w3.org/2000/svg" width="30.301" height="30.301" viewBox="0 0 30.301 30.301">
  <g id="Group_14721" data-name="Group 14721" transform="translate(-19.85 -25.85)">
    <g id="Group_14720" data-name="Group 14720">
      <path id="Path_62189" data-name="Path 62189" d="M19.5,4.5a15,15,0,1,0,15,15,15,15,0,0,0-15-15Zm0,28.752A13.752,13.752,0,1,1,33.252,19.5,13.752,13.752,0,0,1,19.5,33.252Z" transform="translate(15.5 21.5)" fill="#487b32" stroke="#487b32" stroke-width="0.3"/>
      <path id="Path_62190" data-name="Path 62190" d="M22.992,13.687c-3.19,0-4.97,1.5-4.992,4.593h1.388c-.044-2.245,1.145-3.434,3.537-3.434a2.987,2.987,0,0,1,3.146,2.939A3.881,3.881,0,0,1,24.639,20.6a5.8,5.8,0,0,0-2.223,4.763h1.4c.081-1.905.037-2.267,1.721-3.936A4.846,4.846,0,0,0,27.45,17.72C27.452,15.194,25.429,13.687,22.992,13.687Z" transform="translate(12.273 19.275)" fill="#487b32" stroke="#487b32" stroke-width="0.3"/>
    </g>
    <path id="Path_62191" data-name="Path 62191" d="M24.065,31.153a1.247,1.247,0,1,0,.885.36A1.244,1.244,0,0,0,24.065,31.153Z" transform="translate(11.244 15.305)" fill="#487b32" stroke="#487b32" stroke-width="0.3"/>
  </g>
</svg>
