<svg xmlns="http://www.w3.org/2000/svg" width="30.515" height="30.516" viewBox="0 0 30.515 30.516">
  <g id="noun-user-973952" transform="translate(-4.85 -4.85)">
    <path id="Path_62429" data-name="Path 62429" d="M35.215,20.107a15.107,15.107,0,1,0-25,11.405.652.652,0,0,0,.13.112,15.064,15.064,0,0,0,19.522,0A.668.668,0,0,0,30,31.514,15.073,15.073,0,0,0,35.215,20.107Zm-28.872,0a13.765,13.765,0,1,1,23.435,9.784,10.572,10.572,0,0,0-6.468-5.943,6.621,6.621,0,1,0-6.4,0,10.57,10.57,0,0,0-6.468,5.943A13.721,13.721,0,0,1,6.343,20.107Zm13.765,3.328h0a5.279,5.279,0,1,1,5.28-5.279,5.285,5.285,0,0,1-5.28,5.279Zm-8.6,7.409a9.192,9.192,0,0,1,8.6-6.066h0a9.193,9.193,0,0,1,8.6,6.067,13.724,13.724,0,0,1-17.2,0Z" fill="#353535" stroke="#353535" stroke-width="0.3"/>
  </g>
</svg>
