<svg xmlns="http://www.w3.org/2000/svg" width="19.73" height="22.541" viewBox="0 0 19.73 22.541">
  <g id="Group_11388" data-name="Group 11388" transform="translate(-1625.828 -109.125)">
    <path id="download_-_2022-09-21T152737.839" data-name="download - 2022-09-21T152737.839" d="M260.377,238.66a2.98,2.98,0,0,1,2.978,2.837,7.64,7.64,0,0,1,4.66,7.036v4.292a2.422,2.422,0,0,1-.19,4.836h-14.9a2.422,2.422,0,0,1-.19-4.836v-4.292A7.64,7.64,0,0,1,257.4,241.5a2.981,2.981,0,0,1,2.981-2.837Zm-1.765,4.373a5.776,5.776,0,0,0-4.01,5.5V253a1.678,1.678,0,0,1-1.676,1.677.559.559,0,1,0,0,1.118h14.9a.559.559,0,0,0,0-1.118A1.675,1.675,0,0,1,266.152,253v-4.471a5.777,5.777,0,0,0-4.01-5.5l-.647-.207v-1.188a1.118,1.118,0,0,0-2.235,0v1.188Zm-1.775,14.629H258.7a1.677,1.677,0,1,0,3.353,0h1.863a3.54,3.54,0,1,1-7.079,0Z" transform="translate(1375.319 -129.535)" fill="#666"/>
  </g>
</svg>
