<svg xmlns="http://www.w3.org/2000/svg" width="40.339" height="33.799" viewBox="0 0 40.339 33.799">
  <g id="noun-teaching-4094967" transform="translate(-33.69 -70.14)">
    <path id="Path_63817" data-name="Path 63817" d="M68.186,361.55a.435.435,0,0,0-.436.436v6.31a.436.436,0,0,0,.872,0v-6.31a.435.435,0,0,0-.436-.436Z" transform="translate(-30.777 -265.042)" fill="#6c757d" stroke="#6c757d" stroke-width="0.5"/>
    <path id="Path_63818" data-name="Path 63818" d="M73.342,70.39H35.313a.435.435,0,0,0-.436.436V94.364a6.907,6.907,0,0,0-.937,3.48v5.409a.437.437,0,0,0,.873,0V97.844a6.079,6.079,0,0,1,6.072-6.073H42.26a15.611,15.611,0,0,1,6.595,1.058l2.607.9a.437.437,0,0,0,.466-.118l5.013-5.5a1.219,1.219,0,0,1,1.517-.215,1.2,1.2,0,0,1,.3,1.843l-6.031,6.728a1.46,1.46,0,0,1-1.365.463l-3.942-1.264a.437.437,0,0,0-.57.415v7.17a.437.437,0,0,0,.873,0v-2.718H73.342a.437.437,0,0,0,.437-.437V70.826a.436.436,0,0,0-.437-.436ZM42.2,90.849a3.933,3.933,0,1,1,3.933-3.933A3.934,3.934,0,0,1,42.2,90.849Zm30.709,8.813H47.718V96.682l3.409,1.092a2.348,2.348,0,0,0,2.243-.718L59.4,90.328a2.091,2.091,0,0,0-3.106-2.8l-4.82,5.288-2.332-.807a15.133,15.133,0,0,0-4.391-1.023,4.8,4.8,0,1,0-5.076.022,6.943,6.943,0,0,0-3.925,2.169V71.262H72.906Z" fill="#6c757d" stroke="#6c757d" stroke-width="0.5"/>
    <path id="Path_63819" data-name="Path 63819" d="M195.366,122.138H214.5a.437.437,0,0,0,0-.873H195.366a.437.437,0,1,0,0,.873Z" transform="translate(-146.53 -46.311)" fill="#6c757d" stroke="#6c757d" stroke-width="0.5"/>
    <path id="Path_63820" data-name="Path 63820" d="M371.822,169.77h-3.646a.436.436,0,0,0,0,.872h3.646a.436.436,0,1,0,0-.872Z" transform="translate(-303.857 -90.465)" fill="#6c757d" stroke="#6c757d" stroke-width="0.5"/>
    <path id="Path_63821" data-name="Path 63821" d="M195.576,170.642h11.083a.436.436,0,0,0,0-.872H195.576a.436.436,0,0,0,0,.872Z" transform="translate(-146.74 -90.465)" fill="#6c757d" stroke="#6c757d" stroke-width="0.5"/>
    <path id="Path_63822" data-name="Path 63822" d="M336.458,218.28h-7.15a.437.437,0,0,0,0,.873h7.15a.437.437,0,0,0,0-.873Z" transform="translate(-268.493 -134.624)" fill="#6c757d" stroke="#6c757d" stroke-width="0.5"/>
    <path id="Path_63823" data-name="Path 63823" d="M195.366,219.138h3.748a.437.437,0,0,0,0-.873h-3.748a.437.437,0,1,0,0,.873Z" transform="translate(-146.53 -134.61)" fill="#6c757d" stroke="#6c757d" stroke-width="0.5"/>
  </g>
</svg>
